<?xml version="1.0" encoding="UTF-8"?>
<svg id="Capa_1" data-name="Capa 1" xmlns="http://www.w3.org/2000/svg" viewBox="0 0 800 585.23">
  <defs>
    <style>
      .cls-1 {
        fill: #f7f5f5;
        stroke-width: 0px;
      }
    </style>
  </defs>
  <path class="cls-1" d="m425.81,68.74h63.54v17.54h-63.54v-17.54Zm63.39,28.95h-63.51v17.59h63.51v-17.59Zm-133.51-28.95h-63.59v17.54h63.59v-17.54Zm444.32,344.02v42.21h-94.71v126.02h-54.17v-126.02H143.76v130.26h-54.22v-130.26H0v-42.21h116.27l-63.66-14.64L143.81,0l117.46,26.86v-14.04h125.28v399.96h8.33V8.84h125.26v403.93h16.43V8.84h125.36v403.93h138.06Zm-638.16-7.14L245.45,40.87l-88.73-20.32-83.58,364.77,88.71,20.3ZM261.27,48.62l-83.46,364.19h83.46V48.62Zm108.14,315.22h-91v40.36h91v-40.36h0Zm-75.91-45.97v16.36h62.91v-16.36h-62.91Zm62.91-10.96v-16.33h-62.91v16.33h62.91Zm13-276.9h-91v230.93h91V30.01h0Zm133.59,370.17V26h-91.03v374.19h91.03ZM644.8,26h-91v374.19h91V26Zm-22.29,34.56h-17.54v207.73h17.54V60.56Zm-28.98-.43h-17.59v207.71h17.59V60.13Zm-394.16,14.82l-47.56,207.63,15.85,3.64,47.56-207.63-15.85-3.64Zm-31.73-6.21l-47.58,207.6,15.85,3.64,47.58-207.6-15.85-3.64Zm321.56,221.79h-63.51v17.52h63.51v-17.52Zm-63.39,48.72h63.54v-17.52h-63.54v17.52Z"/>
</svg>