<?xml version="1.0" encoding="UTF-8"?>
<svg id="Capa_1" data-name="Capa 1" xmlns="http://www.w3.org/2000/svg" viewBox="0 0 810 596.21">
  <defs>
    <style>
      .cls-1 {
        fill: #fff;
        stroke: #ccc;
        stroke-miterlimit: 10;
        stroke-width: 10px;
      }
    </style>
  </defs>
  <path class="cls-1" d="m430.81,74.73h63.54v17.54h-63.54v-17.54Zm63.39,28.95h-63.51v17.59h63.51v-17.59Zm-133.51-28.95h-63.59v17.54h63.59v-17.54Zm444.32,344.02v42.21h-94.71v126.02h-54.17v-126.02H148.76v130.26h-54.22v-130.26H5v-42.21h116.27l-63.66-14.64L148.81,5.99l117.46,26.86v-14.04h125.28v399.96h8.33V14.82h125.26v403.93h16.43V14.82h125.36v403.93h138.06Zm-638.16-7.14L250.45,46.86l-88.73-20.32-83.58,364.77,88.71,20.3ZM266.27,54.61l-83.46,364.19h83.46V54.61Zm108.14,315.22h-91v40.36h91v-40.36h0Zm-75.91-45.97v16.36h62.91v-16.36h-62.91Zm62.91-10.96v-16.33h-62.91v16.33h62.91Zm13-276.9h-91v230.93h91V36h0Zm133.59,370.17V31.99h-91.03v374.19h91.03ZM649.8,31.99h-91v374.19h91V31.99Zm-22.29,34.56h-17.54v207.73h17.54V66.55Zm-28.98-.43h-17.59v207.71h17.59V66.12Zm-394.16,14.82l-47.56,207.63,15.85,3.64,47.56-207.63-15.85-3.64Zm-31.73-6.21l-47.58,207.6,15.85,3.64,47.58-207.6-15.85-3.64Zm321.56,221.79h-63.51v17.52h63.51v-17.52Zm-63.39,48.72h63.54v-17.52h-63.54v17.52Z"/>
</svg>