<?xml version="1.0" encoding="UTF-8"?>
<svg id="Layer_1" data-name="Layer 1" xmlns="http://www.w3.org/2000/svg" viewBox="0 0 121.32 64.5">
  <defs>
    <style>
      .cls-1 {
        fill-rule: evenodd;
      }

      .cls-1, .cls-2, .cls-3 {
        stroke-width: 0px;
      }

      .cls-1, .cls-3 {
        fill: #2f2b24;
      }

      .cls-2 {
        fill: #fff;
      }
    </style>
  </defs>
  <path class="cls-2" d="m64.5,0h56.82v64.5H0C0,28.9,28.9,0,64.5,0Z"/>
  <g>
    <path class="cls-3" d="m71.52,40.45c1.9,3.4,5.53,5.57,9.43,5.57s7.54-2.17,9.43-5.57c.17-.3.03-.68-.27-.82l-2.19-1.04c-.31-.15-.68-.01-.85.28-1.27,2.18-3.57,3.5-6.11,3.5s-4.83-1.34-6.11-3.51c-.17-.29-.54-.43-.85-.28l-2.2,1.05c-.31.15-.44.52-.27.82h0Z"/>
    <path class="cls-1" d="m110.52,31.45l-2.43-1.32c-1.07-5.24-3.62-9.92-7.19-13.62-2.02-2.1-4.35-3.85-6.94-5.24v-1.54c0-.81-1.54-1.54-4.03-2.05-2.33-.49-5.49-.79-8.97-.79-1.23,0-2.41.04-3.56.1-5.46.33-9.45,1.44-9.45,2.73v1.54c-1.74.93-3.36,2.04-4.86,3.3-4.64,3.95-7.98,9.39-9.27,15.57l-2.43,1.32c-1.11.59-1.7,1.84-1.48,3.06l2.21,12.43c.22,1.26,1.25,2.21,2.51,2.37l3.72.45c2.02,2.17,4.56,3.88,7.51,5.12,3.95,1.68,8.6,2.57,13.6,2.71.49.02,1.01.02,1.5.02,3.82,0,7.45-.41,10.77-1.26,4.35-1.13,8.14-3.02,11.01-5.75.33-.32.67-.65.99-1.01l3.5-.33c1.31-.12,2.35-1.09,2.59-2.39l2.19-12.37c.22-1.2-.38-2.45-1.48-3.04h0s0,0,0,0Zm-29.57,19.39c-6.6,0-12.02-1.36-15.65-3.95-3.54-2.51-5.26-6.17-5.26-11.17,0-11.54,9.39-20.93,20.93-20.93s20.93,9.39,20.93,20.93c0,5-1.72,8.64-5.26,11.17-3.68,2.59-9.09,3.95-15.69,3.95h0,0Z"/>
  </g>
</svg>