<?xml version="1.0" encoding="UTF-8"?>
<svg id="Layer_1" data-name="Layer 1" xmlns="http://www.w3.org/2000/svg" viewBox="0 0 855.95 698.24">
  <defs>
    <style>
      .cls-1 {
        fill-rule: evenodd;
      }

      .cls-1, .cls-2 {
        fill: #2f2b24;
        stroke-width: 0px;
      }
    </style>
  </defs>
  <path class="cls-2" d="m298.14,461.93c26.1,46.77,76.13,76.7,129.86,76.7s103.76-29.89,129.86-76.7c2.31-4.13.48-9.31-3.78-11.35l-30.19-14.36c-4.26-2.04-9.35-.17-11.75,3.92-17.49,30.02-49.2,48.16-84.14,48.16s-66.47-18.4-84.14-48.29c-2.39-4.05-7.44-5.87-11.7-3.83l-30.28,14.4c-4.26,2.04-6.09,7.18-3.78,11.35h.04Z"/>
  <path class="cls-1" d="m834.98,338.11l-33.45-18.23c-14.7-72.09-49.77-136.56-99.02-187.42-27.76-28.84-59.86-53.03-95.49-72.09v-21.23c0-11.14-21.23-21.23-55.51-28.28-32.11-6.79-75.61-10.88-123.51-10.88-16.88,0-33.19.57-48.99,1.35-75.09,4.61-130.03,19.84-130.03,37.54v21.23c-23.93,12.79-46.24,28.02-66.91,45.42-63.91,54.42-109.89,129.21-127.6,214.34l-33.45,18.23c-15.23,8.18-23.41,25.28-20.4,42.16l30.45,171.1c3,17.4,17.14,30.45,34.54,32.63l51.16,6.26c27.76,29.93,62.82,53.34,103.37,70.43,54.42,23.14,118.33,35.37,187.15,37.28,6.79.26,13.88.26,20.66.26,52.51,0,102.54-5.7,148.26-17.4,59.86-15.49,112.07-41.63,151.52-79.18,4.61-4.35,9.27-8.96,13.62-13.88l48.16-4.61c17.97-1.61,32.37-14.97,35.63-32.93l30.19-170.27c3-16.58-5.18-33.72-20.4-41.89l.04.04Zm-406.94,266.9c-90.84,0-165.4-18.75-215.43-54.42-48.68-34.54-72.35-84.88-72.35-153.7,0-158.88,129.21-288.08,288.08-288.08s288.08,129.21,288.08,288.08c0,68.82-23.67,118.9-72.35,153.7-50.6,35.63-125.12,54.42-216,54.42h-.04Z"/>
</svg>